HIERARCHY
ROOT Hips
{
	OFFSET -0.001795 -0.223333 0.028219
	CHANNELS 6 Xposition Yposition Zposition Zrotation Yrotation Xrotation 
	JOINT LeftUpLeg
	{
		OFFSET 0.069520 -0.091406 -0.006815
		CHANNELS 3 Zrotation Yrotation Xrotation
		JOINT LeftLeg
		{
			OFFSET 0.034277 -0.375199 -0.004496
			CHANNELS 3 Zrotation Yrotation Xrotation
			JOINT LeftFoot
			{
				OFFSET -0.013596 -0.397961 -0.043693
				CHANNELS 3 Zrotation Yrotation Xrotation
				JOINT LeftToe
				{
					OFFSET 0.026358 -0.055791 0.119288
					CHANNELS 3 Zrotation Yrotation Xrotation
					End Site
					{
						OFFSET 0.000000 0.000000 0.000000
					}
				}
			}
		}
	}
	JOINT RightUpLeg
	{
		OFFSET -0.067670 -0.090522 -0.004320
		CHANNELS 3 Zrotation Yrotation Xrotation
		JOINT RightLeg
		{
			OFFSET -0.038290 -0.382569 -0.008850
			CHANNELS 3 Zrotation Yrotation Xrotation
			JOINT RightFoot
			{
				OFFSET 0.015774 -0.398415 -0.042312
				CHANNELS 3 Zrotation Yrotation Xrotation
				JOINT RightToe
				{
					OFFSET -0.025372 -0.048144 0.123348
					CHANNELS 3 Zrotation Yrotation Xrotation
					End Site
					{
						OFFSET 0.000000 0.000000 0.000000
					}
				}
			}
		}
	}
	JOINT Spine
	{
		OFFSET -0.002533 0.108963 -0.026696
		CHANNELS 3 Zrotation Yrotation Xrotation
		JOINT Spine1
		{
			OFFSET 0.005487 0.135180 0.001092
			CHANNELS 3 Zrotation Yrotation Xrotation
			JOINT Spine2
			{
				OFFSET 0.001457 0.052922 0.025425
				CHANNELS 3 Zrotation Yrotation Xrotation
				JOINT Neck
				{
					OFFSET -0.002778 0.213870 -0.042857
					CHANNELS 3 Zrotation Yrotation Xrotation
					JOINT Head
					{
						OFFSET 0.005152 0.064970 0.051349
						CHANNELS 3 Zrotation Yrotation Xrotation
						End Site
						{
							OFFSET 0.000000 0.000000 0.000000
						}
					}
				}
				JOINT LeftShoulder
				{
					OFFSET 0.078845 0.121749 -0.034090
					CHANNELS 3 Zrotation Yrotation Xrotation
					JOINT LeftArm
					{
						OFFSET 0.090977 0.030469 -0.008868
						CHANNELS 3 Zrotation Yrotation Xrotation
						JOINT LeftForeArm
						{
							OFFSET 0.259612 -0.012772 -0.027456
							CHANNELS 3 Zrotation Yrotation Xrotation
							JOINT LeftHand
							{
								OFFSET 0.249234 0.008986 -0.001171
								CHANNELS 3 Zrotation Yrotation Xrotation
								End Site
								{
									OFFSET 0.000000 0.000000 0.000000
								}
							}
						}
					}
				}
				JOINT RightShoulder
				{
					OFFSET -0.081759 0.118833 -0.038615
					CHANNELS 3 Zrotation Yrotation Xrotation
					JOINT RightArm
					{
						OFFSET -0.096012 0.032551 -0.009143
						CHANNELS 3 Zrotation Yrotation Xrotation
						JOINT RightForeArm
						{
							OFFSET -0.253742 -0.013329 -0.021401
							CHANNELS 3 Zrotation Yrotation Xrotation
							JOINT RightHand
							{
								OFFSET -0.255298 0.007772 -0.005559
								CHANNELS 3 Zrotation Yrotation Xrotation
								End Site
								{
									OFFSET 0.000000 0.000000 0.000000
								}
							}
						}
					}
				}
			}
		}
	}
}
MOTION
Frames: 13
Frame Time: 0.050000
0.452316 0.876872 -0.058194 -5.190613 5.384752 13.837421 26.106870 3.902741 -42.400185 -15.171124 4.891326 33.814159 9.340949 20.216374 11.388940 0.000000 0.000000 0.000000 -21.046630 -2.623574 -32.802818 11.585416 -3.436643 24.747604 -8.880232 -20.671241 17.697688 0.000000 0.000000 0.000000 -0.641995 -2.207090 38.481675 -3.956119 1.469153 -28.039304 -4.635571 8.554683 23.686470 21.771060 -3.605830 -47.053393 0.000000 0.000000 0.000000 -18.563135 -32.329777 13.678195 -37.475937 -30.327107 3.427346 -6.230687 -27.560018 2.401587 0.000000 0.000000 0.000000 30.911981 13.724798 12.557828 48.903603 33.258335 5.698660 5.252249 33.375428 3.518057 0.000000 0.000000 0.000000 
0.453943 0.877576 -0.058066 -5.022040 4.443207 14.066142 26.743581 4.261284 -41.729277 -14.960772 4.861100 33.048031 9.180981 19.876311 12.156571 0.000000 0.000000 0.000000 -21.016927 -2.531052 -33.623796 11.843154 -3.470648 25.088601 -8.406013 -20.051855 17.495047 0.000000 0.000000 0.000000 -0.312327 -2.197131 38.376916 -4.211142 1.503601 -27.912686 -4.684559 8.010790 23.659393 21.806018 -3.834318 -46.444282 0.000000 0.000000 0.000000 -18.531519 -32.277893 13.956828 -37.232717 -29.372896 3.078070 -5.352418 -27.939592 2.241332 0.000000 0.000000 0.000000 30.848630 14.183894 12.439954 48.945950 32.989340 5.698880 6.165173 32.176599 3.556766 0.000000 0.000000 0.000000 
0.459098 0.879439 -0.058269 -4.997762 3.579323 14.072164 26.876818 4.471602 -41.302932 -14.884447 4.937939 33.021292 8.932643 19.404250 12.681182 0.000000 0.000000 0.000000 -21.050220 -2.464419 -34.331835 11.956867 -3.401817 24.831621 -8.233196 -19.857269 18.736443 0.000000 0.000000 0.000000 0.457177 -2.319012 37.497466 -4.151609 1.487735 -27.749652 -4.810815 8.067203 23.928630 21.576566 -3.687222 -46.901077 0.000000 0.000000 0.000000 -18.206517 -31.954883 13.829654 -37.780331 -28.747887 2.923102 -4.948066 -28.370186 2.182015 0.000000 0.000000 0.000000 30.637697 13.747871 11.922621 49.059382 32.501777 5.524436 7.110652 31.457410 3.708368 0.000000 0.000000 0.000000 
0.468644 0.882045 -0.058831 -4.845751 2.112204 14.036020 27.311432 4.898808 -40.628172 -15.382011 5.300515 32.678163 8.796855 19.041715 13.325275 0.000000 0.000000 0.000000 -21.123755 -2.182685 -34.059419 11.324013 -2.930753 23.474724 -8.142325 -19.881957 20.477937 0.000000 0.000000 0.000000 0.752857 -2.187332 36.817942 -4.103209 1.474372 -27.239083 -4.745454 8.059952 24.192140 20.851387 -3.529794 -46.723037 0.000000 0.000000 0.000000 -17.894770 -31.318223 13.625568 -37.671674 -28.395286 2.741381 -4.292605 -29.308062 2.098650 0.000000 0.000000 0.000000 29.438871 13.871767 11.426704 49.387768 32.056746 5.539880 6.999819 31.352845 3.638046 0.000000 0.000000 0.000000 
0.482137 0.886041 -0.059511 -4.259181 1.092765 13.791662 26.731891 4.813336 -39.670488 -15.523583 5.447952 32.454000 8.493169 18.474967 13.711510 0.000000 0.000000 0.000000 -21.683890 -2.120629 -33.602757 10.666175 -2.542361 22.214268 -7.826460 -19.518641 22.062158 0.000000 0.000000 0.000000 1.270496 -2.212510 36.270066 -4.399689 1.525144 -27.096064 -4.619029 7.790475 24.841521 21.141452 -3.811560 -46.520863 0.000000 0.000000 0.000000 -18.162800 -31.438765 13.970628 -37.666293 -27.934218 2.526029 -3.046740 -30.145958 1.851561 0.000000 0.000000 0.000000 29.063467 13.714680 10.917747 48.153349 32.135523 5.291243 7.063151 30.312208 3.461198 0.000000 0.000000 0.000000 
0.498967 0.888859 -0.060534 -3.922563 -0.271719 13.410041 26.631520 4.960703 -38.637936 -15.967291 5.804033 32.421609 8.511474 18.360606 14.116696 0.000000 0.000000 0.000000 -22.283277 -1.979475 -32.942749 9.678083 -2.051755 20.769988 -7.041125 -18.580002 24.157381 0.000000 0.000000 0.000000 1.051179 -1.919233 35.740890 -4.270367 1.507523 -26.053048 -4.404393 7.801501 24.854674 20.411011 -3.734108 -45.954922 0.000000 0.000000 0.000000 -17.492229 -30.845350 13.676347 -37.909519 -28.054541 2.542356 -2.255115 -30.842952 1.691392 0.000000 0.000000 0.000000 28.212364 14.127988 10.744398 48.189341 32.195634 5.438402 5.496092 30.112351 3.002263 0.000000 0.000000 0.000000 
0.518564 0.891974 -0.061792 -3.684356 -1.579119 12.775491 26.142527 4.919025 -37.324498 -16.287073 6.099891 32.375957 8.250035 17.822002 14.103548 0.000000 0.000000 0.000000 -22.883249 -1.844085 -32.141569 8.676712 -1.608399 19.250314 -6.749623 -18.429245 26.673916 0.000000 0.000000 0.000000 0.963767 -1.705240 35.505782 -4.230989 1.490475 -26.053052 -4.039930 8.057215 25.386562 20.457770 -3.862217 -45.819066 0.000000 0.000000 0.000000 -17.035567 -30.832496 13.675285 -38.411630 -27.982013 2.525162 -2.258445 -31.163176 1.718224 0.000000 0.000000 0.000000 27.639112 13.963317 10.362873 47.827458 32.184771 5.357047 4.729441 29.331384 2.699143 0.000000 0.000000 0.000000 
0.540894 0.893936 -0.063999 -3.594777 -3.271156 12.712925 25.036019 4.883259 -36.835333 -16.345404 6.320601 32.135295 8.836233 18.535654 14.174416 0.000000 0.000000 0.000000 -23.538048 -1.588941 -31.038889 7.244255 -1.050709 15.988316 -6.246586 -18.195449 30.828755 0.000000 0.000000 0.000000 0.573836 -1.323154 34.807591 -4.099891 1.454743 -25.234906 -4.032328 8.112768 25.121476 19.462983 -3.698846 -45.129568 0.000000 0.000000 0.000000 -16.607940 -30.629457 13.676772 -38.086510 -27.904451 2.449526 -2.677636 -31.457476 1.863807 0.000000 0.000000 0.000000 27.939473 14.234804 10.262057 47.831493 32.447775 5.549867 3.578559 29.276101 2.390277 0.000000 0.000000 0.000000 
0.565136 0.895254 -0.067774 -3.584338 -5.145214 12.570361 24.042793 4.888799 -36.217815 -16.552295 6.662648 32.016065 9.173750 18.858502 13.364982 0.000000 0.000000 0.000000 -24.171092 -1.322164 -30.219213 6.129026 -0.683944 12.431759 -5.986111 -18.342859 34.275646 0.000000 0.000000 0.000000 -0.089809 -0.851238 34.602804 -3.946336 1.400835 -25.336440 -3.718365 8.201723 25.540921 18.932917 -3.743418 -44.556279 0.000000 0.000000 0.000000 -17.074636 -31.080925 14.261063 -37.020081 -27.722890 2.209296 -2.855271 -30.317839 1.855760 0.000000 0.000000 0.000000 28.369252 14.798230 10.371042 47.615523 32.831689 5.674141 2.891277 28.938157 2.167183 0.000000 0.000000 0.000000 
0.589683 0.896667 -0.073390 -3.380096 -6.689917 12.619465 22.665383 4.708997 -35.873417 -16.131710 6.594280 31.389541 9.651493 19.436323 13.098988 0.000000 0.000000 0.000000 -24.911369 -1.185051 -30.113962 4.777323 -0.394124 9.354563 -5.434506 -18.154050 38.050813 0.000000 0.000000 0.000000 -0.454744 -0.532186 34.091422 -4.074417 1.415037 -24.409689 -3.788748 7.929841 25.162379 17.711077 -3.454447 -44.115231 0.000000 0.000000 0.000000 -16.586585 -31.316625 14.555363 -36.421301 -27.934905 2.190064 -3.371479 -30.110193 1.994170 0.000000 0.000000 0.000000 28.639931 15.135664 10.185185 48.581109 33.391595 6.277882 1.929897 28.521467 1.880552 0.000000 0.000000 0.000000 
0.612074 0.897608 -0.080075 -3.623494 -8.045036 12.762658 21.889421 4.707589 -35.648911 -16.046475 6.668421 30.866540 10.242133 20.231192 12.327695 0.000000 0.000000 0.000000 -25.684738 -1.083998 -30.231034 4.392575 -0.333563 6.649133 -5.549109 -18.659988 41.797753 0.000000 0.000000 0.000000 -1.189023 -0.106516 34.286148 -3.886563 1.350689 -24.196592 -3.560038 7.869856 24.656192 17.299978 -3.477699 -43.434537 0.000000 0.000000 0.000000 -16.378041 -31.741074 14.926344 -36.228103 -28.494353 2.349726 -3.247801 -29.648541 1.942513 0.000000 0.000000 0.000000 28.916717 15.940288 10.465816 49.557287 33.531781 6.702984 1.588537 28.558774 1.786288 0.000000 0.000000 0.000000 
0.629564 0.898647 -0.086644 -4.344955 -9.047938 13.223285 21.493435 4.831576 -35.843969 -15.738226 6.667145 30.759194 10.384499 20.427104 11.003948 0.000000 0.000000 0.000000 -25.771525 -0.954357 -30.976248 4.696258 -0.374318 5.037863 -6.060249 -19.407854 43.802235 0.000000 0.000000 0.000000 -1.424712 0.093914 34.186805 -4.212877 1.401222 -24.416557 -3.329063 8.580692 24.400871 17.027653 -3.591300 -42.221654 0.000000 0.000000 0.000000 -16.546037 -32.194945 15.184478 -35.539575 -29.194233 2.471207 -4.550597 -29.008363 2.223993 0.000000 0.000000 0.000000 29.391751 16.194643 10.784094 51.338852 33.747342 7.250024 0.706025 30.039096 1.727270 0.000000 0.000000 0.000000 
0.641364 0.899227 -0.092375 -4.910723 -9.643024 13.471164 21.520777 4.967623 -35.758653 -15.680403 6.684926 30.481653 10.656272 20.900623 9.596073 0.000000 0.000000 0.000000 -25.941555 -0.835561 -30.766694 5.500071 -0.465245 4.636832 -6.434965 -19.877809 44.151700 0.000000 0.000000 0.000000 -1.844402 0.319510 34.135282 -3.872956 1.318387 -24.625968 -3.410265 9.388101 24.265555 16.419145 -3.328214 -41.952079 0.000000 0.000000 0.000000 -16.844170 -32.496472 15.310249 -34.644989 -29.372770 2.414845 -4.305801 -29.295281 2.179005 0.000000 0.000000 0.000000 29.452305 16.279010 11.057681 53.018682 34.289261 7.937934 0.454805 31.431482 1.818074 0.000000 0.000000 0.000000 
